HIERARCHY
ROOT Hips
{
  OFFSET -73.8564 90.1636 4.32793
  CHANNELS 6 Xposition Yposition Zposition Zrotation Xrotation Yrotation
  JOINT ToSpine
  {
    OFFSET -2.69724 7.43032 -0.144315
    CHANNELS 3 Zrotation Xrotation Yrotation
    JOINT Spine
    {
      OFFSET -0.0310711 10.7595 1.96963
      CHANNELS 3 Zrotation Xrotation Yrotation
      JOINT Spine1
      {
        OFFSET 13.1342 3.43533 0.764692
        CHANNELS 3 Zrotation Xrotation Yrotation
        JOINT Neck
        {
          OFFSET 29.8703 7.82586 -0.130764
          CHANNELS 3 Zrotation Xrotation Yrotation
          JOINT Head
          {
            OFFSET 9.52751 0.295786 -0.907742
            CHANNELS 3 Zrotation Xrotation Yrotation
            End Site
            {
              OFFSET 16.4037 0.713936 2.7358
            }
          }
        }
        JOINT LeftShoulder
        {
          OFFSET 27.5574 4.95586 2.47156
          CHANNELS 3 Zrotation Xrotation Yrotation
          JOINT LeftArm
          {
            OFFSET 1.20734 -0.998971 20.1238
            CHANNELS 3 Zrotation Xrotation Yrotation
            JOINT LeftForeArm
            {
              OFFSET 26.8049 -0.0536703 -0.155908
              CHANNELS 3 Zrotation Xrotation Yrotation
              JOINT LeftHand
              {
                OFFSET 26.6817 0 0.320147
                CHANNELS 3 Zrotation Xrotation Yrotation
                End Site
                {
                  OFFSET 18.6119 0 0.382219
                }
              }
            }
          }
        }
        JOINT RightShoulder
        {
          OFFSET 27.5927 4.71444 -2.65209
          CHANNELS 3 Zrotation Xrotation Yrotation
          JOINT RightArm
          {
            OFFSET 2.83739 -1.17114 -18.7564
            CHANNELS 3 Zrotation Xrotation Yrotation
            JOINT RightForeArm
            {
              OFFSET 28.839 -0.0548439 1.22491
              CHANNELS 3 Zrotation Xrotation Yrotation
              JOINT RightHand
              {
                OFFSET 26.5114 0 -0.101894
                CHANNELS 3 Zrotation Xrotation Yrotation
                End Site
                {
                  OFFSET 18.2168 0 0
                }
              }
            }
          }
        }
      }
    }
  }
  JOINT LeftUpLeg
  {
    OFFSET -4.76168 -1.9167 -10.2353
    CHANNELS 3 Zrotation Xrotation Yrotation
    JOINT LeftLeg
    {
      OFFSET 2.55951 -42.0585 -8.02213
      CHANNELS 3 Zrotation Xrotation Yrotation
      JOINT LeftFoot
      {
        OFFSET 3.16357 -42.5282 -3.95426
        CHANNELS 3 Zrotation Xrotation Yrotation
        JOINT LeftToeBase
        {
          OFFSET 0.346054 -6.02161 12.8035
          CHANNELS 3 Zrotation Xrotation Yrotation
          End Site
          {
            OFFSET 0.134235 -1.35082 5.13018
          }
        }
      }
    }
  }
  JOINT RightUpLeg
  {
    OFFSET -4.94151 -1.41743 10.6446
    CHANNELS 3 Zrotation Xrotation Yrotation
    JOINT RightLeg
    {
      OFFSET -2.56294 -42.0364 -7.94377
      CHANNELS 3 Zrotation Xrotation Yrotation
      JOINT RightFoot
      {
        OFFSET -3.0952 -42.555 -4.02241
        CHANNELS 3 Zrotation Xrotation Yrotation
        JOINT RightToeBase
        {
          OFFSET -0.0828122 -6.13587 12.8035
          CHANNELS 3 Zrotation Xrotation Yrotation
          End Site
          {
            OFFSET -0.131328 -1.35082 5.13018
          }
        }
      }
    }
  }
}
MOTION
Frames:	15
Frame Time:	0.0333333
55.6502 91.6287 -246.389 -1.91696 -62.7031 -92.8238 -70.1915 0 88.8779 99.404 77.7694 -9.63015 -0.19873 28.2986 -0.769501 -159.502 28.3559 173.568 -158.861 67.9432 -171.576 1.00682 -10.389 -28.8098 -81.6959 61.1109 -43.7187 4.66154 0.977592 -77.7599 0.420957 0.000575531 0.35866 -1.70299 7.2343 37.9503 -71.9942 -43.4195 88.7245 26.3186 -1.55377 86.6595 0.58676 0.00033167 0.0646654 -15.0302 4.22254 104.293 -4.5238 46.7111 -17.9667 -2.38671 0.892202 0.305841 3.15391 -8.90022 9.19336 -70.4669 4.06475 89.0593 3.68867 63.1564 -8.13536 -19.8893 16.1291 4.23034 2.28809 -17.0711 -15.9982 
55.5531 90.3676 -236.193 2.34694 -64.2953 -90.4494 -70.1915 0 88.8779 102.374 76.5126 -18.1825 -2.96979 26.6565 2.49199 -154.739 27.2996 171.498 -156.692 66.96 -169.932 0.922683 -10.7953 -30.5228 -82.3354 58.2005 -48.1845 3.8304 0.963966 -75.5891 0.420957 0.000575531 0.35866 -1.807 6.94943 40.4581 -71.8194 -42.5457 85.9939 22.9592 -5.65859 76.747 0.58676 0.00033167 0.0646654 -18.0738 2.02238 105.381 -5.60062 56.4919 -9.97371 6.80105 -9.792 -1.15633 -0.949446 -0.545794 6.11193 -61.0421 0.780494 86.4169 7.70709 80.4737 -25.2532 -16.2573 9.48051 2.84602 1.70256 -15.268 5.87905 
55.4618 88.8935 -226.571 13.9034 -64.4583 -81.7226 -70.1915 0 88.8779 90.5754 74.7437 -12.2039 0.0482302 23.9028 3.17523 -155.373 26.7384 168.739 -154.867 66.3257 -171.534 0.495979 -12.6624 -32.855 -81.8492 53.1205 -57.1573 5.8955 1.77072 -72.9471 0.420957 0.000575531 0.35866 -1.81921 6.07727 44.4621 -71.9747 -39.678 84.4791 20.5948 -9.74497 65.6572 0.58676 0.00033167 0.0646654 -21.4978 -4.77606 102.536 -7.20893 62.6437 -7.40414 6.99283 -16.2083 -1.28406 0.688366 -5.22523 11.5495 -48.5702 -3.73513 84.3863 162.019 84.3334 176.463 -15.6087 4.1889 2.40983 1.60883 -15.8832 14.6527 
55.3509 89.0555 -217.007 16.2992 -64.8845 -79.1152 -70.1915 0 88.8779 91.4872 73.1047 -12.7602 0.934456 22.6338 1.46728 -153.356 25.7378 167.755 -153.502 65.4057 -171.384 0.281257 -13.735 -32.1319 -80.6481 50.5837 -65.6552 7.69844 2.46303 -71.9157 0.420957 0.000575531 0.35866 -2.00683 6.34058 46.0511 -70.1749 -40.4803 82.0134 18.4585 -12.9728 56.0272 0.58676 0.00033167 0.0646654 -28.2837 -6.38797 99.5531 -7.84204 63.9952 -7.42083 7.29985 -19.1863 -1.32787 3.43666 -10.4482 15.5636 -35.0402 -3.49448 85.5803 167.28 78.4394 174.986 -15.2861 2.63676 2.27235 2.85385 -21.8029 4.08685 
55.3912 89.2544 -207.388 13.0084 -65.6859 -82.2838 -70.1915 0 88.8779 94.6815 72.1641 -15.5221 -0.591878 21.7711 1.70342 -151.416 24.4275 168.993 -154.492 64.2915 -168.91 0.410477 -13.2398 -31.3491 -82.1501 49.6807 -68.442 9.34217 2.05131 -77.1786 0.420957 0.000575531 0.35866 -2.00347 6.03533 47.5632 -66.7674 -39.8086 77.2964 14.9738 -11.63 52.9853 0.58676 0.00033167 0.0646654 -36.393 -6.21996 98.292 -7.8478 63.2578 -9.27673 5.0897 -21.0099 -1.48796 6.56382 -15.3817 19.7455 -22.5481 -2.10953 87.4528 162.817 80.7519 -177.288 -11.967 -2.93567 1.62184 2.41799 -21.0897 -8.06235 
55.1975 89.9835 -196.713 14.8362 -65.3029 -79.8575 -70.1915 0 88.8779 87.4701 70.4888 -7.67309 0.142227 19.7078 1.76684 -150.086 23.0614 169.331 -153.448 62.9415 -168.862 0.625545 -12.4045 -29.3445 -83.7636 50.6626 -69.191 11.7938 0.891326 -85.0889 0.420957 0.000575531 0.35866 -2.02004 5.90358 48.5404 -64.9842 -40.0628 70.9553 16.248 -12.6363 53.0833 0.58676 0.00033167 0.0646654 -44.7892 -6.23046 95.6239 -6.55723 60.1825 -8.58787 2.69989 -19.7567 -1.55464 7.96235 -17.1938 14.7263 -14.7006 -2.54283 86.6748 28.4635 85.9819 -43.1902 -11.5246 -5.97515 1.5076 2.40768 -21.9112 -9.75554 
54.9897 90.8789 -185.335 15.2214 -66.1584 -78.153 -70.1915 0 88.8779 80.6392 68.8164 0.386922 2.32696 17.9702 2.20919 -147.995 21.6116 170.351 -152.581 61.578 -167.539 0.757642 -11.7906 -28.2625 -84.2489 50.7773 -68.9111 14.9433 -0.52406 -91.2558 0.420957 0.000575531 0.35866 -2.00384 5.86547 48.4961 -64.3957 -40.8094 64.4528 17.1599 -13.2874 53.3081 0.58676 0.00033167 0.0646654 -54.3206 -4.52946 93.3733 -5.30119 56.1764 -8.33018 1.58987 -12.6687 -1.12448 10.3867 -21.033 9.69067 -13.4113 -2.31769 84.7025 2.64717 66.3385 -14.7398 -8.19638 -6.00092 1.24829 2.34636 -20.4822 -9.95956 
54.4533 91.1879 -173.719 15.1503 -66.8837 -77.077 -70.1915 0 88.8779 74.2659 67.1295 7.78959 4.28335 16.898 2.26357 -146.702 20.6719 170.321 -150.34 60.4476 -169.849 0.712869 -12.0477 -28.1889 -82.8571 49.8812 -68.3465 15.0226 -2.18745 -97.3398 0.420957 0.000575531 0.35866 -1.89118 5.66608 47.7957 -64.5979 -42.061 58.6949 15.5837 -12.0798 53.1006 0.58676 0.00033167 0.0646654 -62.5347 -2.05441 91.8488 -4.85482 52.8164 -10.7817 0.0777228 -3.67712 -0.385754 11.0192 -22.0947 9.07731 -16.2689 -1.23343 82.6706 0.569961 40.0877 -8.00815 -2.72222 4.4833 0.2606 2.30966 -19.1175 -7.88567 
54.0274 90.9637 -162.074 19.8424 -67.2625 -72.342 -70.1915 0 88.8779 67.2101 64.3421 14.4241 6.9448 15.1835 2.05062 -146.788 20.0616 170.595 -150.477 59.5967 -172.122 0.842876 -11.3595 -27.5077 -80.5248 49.7976 -69.0096 16.4765 -3.09738 -99.5881 0.420957 0.000575531 0.35866 -1.77226 5.709 45.5937 -64.0821 -43.8244 55.7591 16.6172 -13.0692 52.8218 0.58676 0.00033167 0.0646654 -68.265 -1.77147 88.5674 -4.9177 53.3396 -10.5125 -0.419646 -0.614258 -0.0861492 2.28287 -6.94902 7.31579 -21.3831 -1.34142 85.5904 2.73857 16.9035 0.177006 3.18307 17.2714 -2.05319 2.27296 -18.1787 -19.2582 
53.6054 90.2364 -151.462 24.6418 -67.935 -68.494 -70.1915 0 88.8779 62.8576 63.312 16.9643 8.66613 14.5158 2.94951 -146.211 20.6479 171.87 -152.031 60.2644 -170.55 0.81597 -11.57 -26.7768 -76.3754 50.4786 -71.6683 17.1056 -1.84171 -95.2291 0.420957 0.000575531 0.35866 -1.63133 5.62599 43.6669 -64.6249 -45.2947 53.6912 18.5739 -15.0468 52.2674 0.58676 0.00033167 0.0646654 -69.5559 -2.68152 86.4896 -5.3947 58.587 -5.06151 -2.15116 -2.2206 -0.0276954 1.46563 -5.71888 8.29558 -20.8767 -3.57394 84.9059 3.45394 17.4732 -8.47725 5.34198 20.4821 -3.04567 1.78205 -9.52225 -7.93987 
53.1485 88.5228 -141.117 33.1097 -69.4947 -60.1548 -70.1915 0 88.8779 69.4813 63.5612 9.75385 6.99681 13.4863 3.22028 -144.437 21.1921 172.284 -152.406 60.9311 -169.018 0.722025 -12.1005 -27.1317 -73.8013 50.713 -73.7127 16.7653 1.29581 -85.0469 0.420957 0.000575531 0.35866 -1.75834 5.70978 45.3587 -62.1057 -43.8006 56.2597 17.0107 -15.4927 48.8497 0.58676 0.00033167 0.0646654 -67.2905 -2.03365 85.8065 -8.69019 69.0596 1.50679 -2.41819 -3.87559 -0.163341 3.94179 -10.5007 10.6758 -20.7663 -6.8046 74.6555 2.463 32.276 4.5048 1.18191 14.7679 -1.28149 1.30168 -0.273555 -7.9859 
52.4959 86.7583 -131.632 23.9405 -74.7869 -68.1442 -70.1915 0 88.8779 88.0634 66.9044 -4.18288 2.69197 16.2589 1.44844 -142.965 22.5367 172.85 -155.513 62.5663 -164.521 0.509983 -13.0271 -29.2525 -74.3926 50.1276 -73.672 15.5019 5.01263 -71.9502 0.420957 0.000575531 0.35866 -1.88003 5.60704 47.9484 -60.2511 -40.6782 61.0069 15.342 -15.8713 45.0868 0.58676 0.00033167 0.0646654 -63.0976 1.64585 90.943 -19.4086 79.6011 15.7022 -1.4667 -5.8298 -0.433685 5.12202 -12.687 12.6461 -21.3992 -1.61058 74.8644 2.00447 48.3335 -3.1218 -12.6802 -1.4717 1.7435 -1.75427 7.11289 3.98013 
51.3351 85.6012 -122.808 8.9103 -79.159 -79.0818 -70.1915 0 88.8779 106.021 68.3012 -16.9121 2.09028 18.4231 1.41211 -146.412 24.7267 175.108 -160.676 64.5698 -162.25 0.33041 -13.3939 -32.9511 -80.0498 49.768 -72.0218 14.4647 9.68163 -56.4238 0.420957 0.000575531 0.35866 -2.01109 5.97183 48.0243 -59.5387 -36.7056 69.7444 13.3355 -15.8733 40.9359 0.58676 0.00033167 0.0646654 -55.5953 9.13694 92.2245 -84.645 85.9961 81.539 0.21619 -8.36716 -0.762305 6.12809 -14.393 14.1191 -24.733 9.00677 78.3212 2.15681 57.0698 -8.60201 -16.1444 -6.91379 1.80931 0.800111 -1.56994 -4.16386 
51.0647 85.8066 -115.815 -4.26018 -78.2021 -92.7536 -70.1915 0 88.8779 112.775 68.8923 -23.4711 0.0719963 19.8982 1.57955 -145.273 26.7859 174.62 -163.479 66.6958 -158.844 0.440227 -12.8811 -33.1392 -82.0614 51.416 -70.3404 10.6706 12.6318 -40.3692 0.420957 0.000575531 0.35866 -2.11155 6.57815 46.4405 -58.9762 -34.0382 78.862 11.8557 -13.8036 41.3927 0.58676 0.00033167 0.0646654 -41.6043 7.35252 91.0841 -120.542 85.4347 120.042 0.818501 -9.58762 -0.884763 7.0218 -15.8339 15.7557 -26.0866 11.4435 80.4652 3.3362 61.8293 -8.01253 -11.0311 -13.6445 1.32765 1.64569 1.19954 -10.4281 
50.491 87.1579 -109.357 -8.01952 -77.2283 -96.2985 -70.1915 0 88.8779 116.012 68.9014 -27.794 -0.932339 20.1873 2.85988 -143.143 28.7903 171.895 -165.427 68.9493 -156.772 0.486576 -12.7182 -32.7288 -76.2202 53.9417 -71.9577 8.93071 14.9464 -30.9956 0.420957 0.000575531 0.35866 -1.96304 6.39335 45.1386 -65.7281 -32.4435 81.548 15.1986 -12.0926 52.3528 0.58676 0.00033167 0.0646654 -29.6209 4.82609 88.0445 -46.67 85.1307 46.4537 0.803263 -10.0946 -0.921205 7.59801 -16.7854 19.4606 -29.0516 11.2456 79.6211 4.11641 63.4697 -7.07773 -6.97098 -15.5472 1.32038 0.979071 0.691437 -6.35982 
